<?xml version="1.0" encoding="UTF-8"?>
<svg xmlns="http://www.w3.org/2000/svg" xmlns:xlink="http://www.w3.org/1999/xlink" width="64px" height="64px" viewBox="0 0 64 64" version="1.1">
<g id="surface1">
<path style=" stroke:none;fill-rule:nonzero;fill:rgb(9.019608%,9.019608%,9.019608%);fill-opacity:1;" d="M 23.335938 14.636719 C 23.824219 14.976562 24.046875 15.363281 24.1875 15.9375 C 24.1875 16.371094 24.1875 16.804688 24.1875 17.25 C 29.363281 17.25 34.542969 17.25 39.875 17.25 C 39.875 16.777344 39.875 16.300781 39.875 15.8125 C 40.160156 15.105469 40.320312 14.804688 40.984375 14.496094 C 41.4375 14.308594 41.929688 14.304688 42.394531 14.476562 C 42.882812 14.703125 43.195312 15.007812 43.433594 15.496094 C 43.613281 16.039062 43.527344 16.6875 43.5 17.25 C 43.546875 17.25 43.59375 17.246094 43.644531 17.246094 C 45.460938 17.214844 45.460938 17.214844 46.25 17.4375 C 46.292969 17.449219 46.335938 17.460938 46.378906 17.472656 C 47.890625 17.910156 49.117188 18.921875 49.898438 20.285156 C 50.441406 21.289062 50.644531 22.3125 50.640625 23.453125 C 50.640625 23.53125 50.640625 23.613281 50.640625 23.695312 C 50.644531 23.910156 50.640625 24.128906 50.640625 24.347656 C 50.640625 24.582031 50.644531 24.820312 50.644531 25.054688 C 50.644531 25.515625 50.644531 25.976562 50.644531 26.4375 C 50.644531 26.8125 50.644531 27.1875 50.644531 27.5625 C 50.644531 27.617188 50.644531 27.667969 50.644531 27.726562 C 50.644531 27.832031 50.644531 27.941406 50.644531 28.050781 C 50.644531 29.070312 50.644531 30.089844 50.644531 31.105469 C 50.644531 32.035156 50.644531 32.964844 50.644531 33.894531 C 50.648438 34.851562 50.648438 35.808594 50.648438 36.765625 C 50.648438 37.300781 50.648438 37.839844 50.648438 38.375 C 50.648438 38.832031 50.648438 39.289062 50.648438 39.746094 C 50.648438 39.976562 50.648438 40.210938 50.648438 40.441406 C 50.652344 41.570312 50.65625 42.664062 50.238281 43.730469 C 50.21875 43.78125 50.199219 43.828125 50.179688 43.878906 C 49.910156 44.566406 49.542969 45.1875 49.0625 45.75 C 49.019531 45.800781 48.976562 45.851562 48.933594 45.902344 C 48.054688 46.910156 47.007812 47.589844 45.730469 47.984375 C 45.691406 47.996094 45.652344 48.007812 45.613281 48.023438 C 44.847656 48.242188 44.042969 48.269531 43.253906 48.265625 C 43.164062 48.265625 43.078125 48.265625 42.988281 48.265625 C 42.753906 48.265625 42.515625 48.261719 42.28125 48.261719 C 42.035156 48.261719 41.785156 48.261719 41.539062 48.261719 C 41.070312 48.261719 40.601562 48.261719 40.136719 48.257812 C 39.601562 48.257812 39.070312 48.257812 38.535156 48.257812 C 37.441406 48.253906 36.34375 48.253906 35.25 48.25 C 35.292969 48.054688 35.351562 47.929688 35.46875 47.765625 C 35.503906 47.722656 35.535156 47.679688 35.570312 47.632812 C 35.605469 47.585938 35.640625 47.539062 35.675781 47.488281 C 35.75 47.386719 35.824219 47.285156 35.898438 47.183594 C 35.9375 47.132812 35.976562 47.082031 36.015625 47.027344 C 36.179688 46.800781 36.34375 46.570312 36.503906 46.339844 C 36.535156 46.296875 36.566406 46.253906 36.597656 46.207031 C 36.660156 46.121094 36.71875 46.03125 36.78125 45.945312 C 36.941406 45.71875 37.097656 45.496094 37.257812 45.269531 C 37.285156 45.230469 37.3125 45.191406 37.339844 45.152344 C 37.398438 45.070312 37.457031 44.988281 37.515625 44.910156 C 37.632812 44.746094 37.632812 44.746094 37.734375 44.535156 C 37.890625 44.238281 38.058594 43.945312 38.386719 43.824219 C 38.789062 43.75 39.203125 43.773438 39.609375 43.785156 C 39.742188 43.789062 39.878906 43.789062 40.011719 43.789062 C 40.359375 43.789062 40.710938 43.796875 41.058594 43.804688 C 41.617188 43.816406 42.175781 43.820312 42.738281 43.824219 C 42.929688 43.824219 43.125 43.832031 43.320312 43.835938 C 44.148438 43.847656 44.824219 43.792969 45.453125 43.1875 C 46 42.558594 46.152344 41.871094 46.148438 41.054688 C 46.148438 40.980469 46.148438 40.90625 46.148438 40.832031 C 46.152344 40.628906 46.152344 40.421875 46.152344 40.21875 C 46.148438 40 46.152344 39.78125 46.152344 39.558594 C 46.152344 39.128906 46.152344 38.699219 46.152344 38.269531 C 46.152344 37.917969 46.152344 37.566406 46.152344 37.21875 C 46.152344 37.167969 46.152344 37.117188 46.152344 37.066406 C 46.152344 36.964844 46.152344 36.863281 46.152344 36.761719 C 46.152344 35.8125 46.152344 34.863281 46.152344 33.914062 C 46.152344 33.046875 46.152344 32.175781 46.15625 31.308594 C 46.15625 30.414062 46.15625 29.523438 46.15625 28.632812 C 46.15625 28.128906 46.15625 27.628906 46.15625 27.128906 C 46.15625 26.703125 46.15625 26.277344 46.15625 25.851562 C 46.15625 25.632812 46.15625 25.417969 46.15625 25.199219 C 46.15625 24.964844 46.15625 24.726562 46.15625 24.492188 C 46.15625 24.390625 46.15625 24.390625 46.15625 24.285156 C 46.152344 23.871094 46.09375 23.605469 45.875 23.25 C 45.753906 23.132812 45.753906 23.132812 45.621094 23.066406 C 45.558594 23.03125 45.558594 23.03125 45.492188 22.996094 C 45.238281 22.871094 45.035156 22.867188 44.753906 22.867188 C 44.710938 22.867188 44.664062 22.867188 44.617188 22.867188 C 44.46875 22.867188 44.316406 22.867188 44.167969 22.867188 C 44.058594 22.867188 43.949219 22.867188 43.839844 22.863281 C 43.542969 22.863281 43.242188 22.863281 42.945312 22.863281 C 42.621094 22.863281 42.300781 22.863281 41.976562 22.863281 C 41.199219 22.863281 40.417969 22.859375 39.640625 22.859375 C 39.273438 22.859375 38.90625 22.859375 38.539062 22.859375 C 37.320312 22.859375 36.101562 22.855469 34.882812 22.855469 C 34.566406 22.855469 34.253906 22.855469 33.9375 22.855469 C 33.855469 22.855469 33.777344 22.855469 33.699219 22.855469 C 32.421875 22.855469 31.148438 22.855469 29.875 22.851562 C 28.566406 22.851562 27.261719 22.847656 25.953125 22.847656 C 25.21875 22.847656 24.484375 22.847656 23.75 22.847656 C 23.125 22.84375 22.5 22.84375 21.875 22.84375 C 21.554688 22.84375 21.238281 22.84375 20.917969 22.84375 C 20.625 22.84375 20.332031 22.84375 20.042969 22.84375 C 19.9375 22.84375 19.832031 22.84375 19.722656 22.84375 C 18.949219 22.828125 18.949219 22.828125 18.25 23.125 C 18.015625 23.371094 17.929688 23.527344 17.929688 23.863281 C 17.929688 23.960938 17.929688 23.960938 17.929688 24.058594 C 17.929688 24.128906 17.929688 24.199219 17.929688 24.273438 C 17.929688 24.347656 17.929688 24.421875 17.925781 24.5 C 17.925781 24.710938 17.925781 24.917969 17.925781 25.125 C 17.925781 25.351562 17.925781 25.578125 17.925781 25.800781 C 17.925781 26.34375 17.921875 26.886719 17.921875 27.433594 C 17.921875 27.6875 17.921875 27.945312 17.921875 28.199219 C 17.921875 29.050781 17.917969 29.902344 17.917969 30.753906 C 17.917969 30.972656 17.917969 31.195312 17.917969 31.414062 C 17.917969 31.496094 17.917969 31.496094 17.917969 31.582031 C 17.917969 32.46875 17.917969 33.359375 17.914062 34.25 C 17.914062 35.160156 17.910156 36.074219 17.910156 36.984375 C 17.910156 37.5 17.910156 38.011719 17.910156 38.523438 C 17.90625 38.960938 17.90625 39.394531 17.90625 39.832031 C 17.90625 40.054688 17.90625 40.277344 17.90625 40.5 C 17.90625 40.742188 17.90625 40.984375 17.90625 41.226562 C 17.90625 41.296875 17.90625 41.367188 17.90625 41.4375 C 17.910156 42.175781 18.171875 42.714844 18.675781 43.246094 C 19.09375 43.640625 19.5625 43.84375 20.140625 43.835938 C 20.195312 43.832031 20.246094 43.832031 20.300781 43.828125 C 20.359375 43.828125 20.417969 43.828125 20.476562 43.828125 C 20.601562 43.824219 20.726562 43.820312 20.851562 43.816406 C 21.050781 43.8125 21.246094 43.8125 21.445312 43.808594 C 22.007812 43.804688 22.570312 43.796875 23.132812 43.78125 C 23.476562 43.773438 23.824219 43.769531 24.167969 43.769531 C 24.300781 43.765625 24.429688 43.765625 24.558594 43.757812 C 25.550781 43.722656 25.550781 43.722656 25.882812 43.980469 C 26.128906 44.230469 26.316406 44.511719 26.492188 44.816406 C 26.578125 44.964844 26.683594 45.105469 26.789062 45.246094 C 26.847656 45.328125 26.90625 45.410156 26.964844 45.492188 C 27.25 45.886719 27.535156 46.28125 27.824219 46.671875 C 28.089844 47.03125 28.355469 47.390625 28.617188 47.753906 C 28.644531 47.789062 28.671875 47.824219 28.699219 47.863281 C 28.875 48.109375 28.875 48.109375 28.875 48.25 C 27.6875 48.253906 26.5 48.257812 25.3125 48.257812 C 24.761719 48.261719 24.207031 48.261719 23.65625 48.265625 C 23.175781 48.265625 22.695312 48.265625 22.214844 48.269531 C 21.960938 48.269531 21.703125 48.269531 21.449219 48.269531 C 19.335938 48.28125 17.480469 48.023438 15.8125 46.625 C 15.761719 46.585938 15.710938 46.546875 15.660156 46.503906 C 14.394531 45.457031 13.582031 43.761719 13.386719 42.152344 C 13.363281 41.839844 13.367188 41.527344 13.367188 41.214844 C 13.367188 41.136719 13.367188 41.058594 13.367188 40.976562 C 13.363281 40.757812 13.363281 40.542969 13.363281 40.324219 C 13.363281 40.089844 13.363281 39.855469 13.363281 39.621094 C 13.363281 39.109375 13.363281 38.597656 13.363281 38.085938 C 13.363281 37.765625 13.363281 37.445312 13.363281 37.125 C 13.359375 36.234375 13.359375 35.347656 13.359375 34.460938 C 13.359375 34.402344 13.359375 34.347656 13.359375 34.289062 C 13.359375 34.230469 13.359375 34.175781 13.359375 34.117188 C 13.359375 34 13.359375 33.882812 13.359375 33.769531 C 13.359375 33.710938 13.359375 33.65625 13.359375 33.597656 C 13.359375 32.671875 13.359375 31.746094 13.355469 30.820312 C 13.355469 29.867188 13.355469 28.914062 13.355469 27.960938 C 13.355469 27.429688 13.355469 26.894531 13.351562 26.359375 C 13.351562 25.90625 13.351562 25.453125 13.351562 24.996094 C 13.351562 24.765625 13.351562 24.535156 13.351562 24.300781 C 13.34375 22.378906 13.59375 20.65625 14.9375 19.1875 C 14.980469 19.140625 15.023438 19.089844 15.070312 19.039062 C 16.066406 17.984375 17.519531 17.304688 18.96875 17.238281 C 19.191406 17.238281 19.417969 17.238281 19.640625 17.242188 C 19.757812 17.242188 19.757812 17.242188 19.875 17.242188 C 20.0625 17.246094 20.25 17.246094 20.4375 17.25 C 20.4375 17.210938 20.433594 17.171875 20.433594 17.132812 C 20.429688 16.957031 20.425781 16.777344 20.421875 16.601562 C 20.417969 16.542969 20.417969 16.480469 20.414062 16.417969 C 20.40625 15.851562 20.535156 15.363281 20.933594 14.941406 C 20.972656 14.898438 21.015625 14.851562 21.054688 14.808594 C 21.699219 14.222656 22.605469 14.21875 23.335938 14.636719 Z M 23.335938 14.636719 "/>
<path style=" stroke:none;fill-rule:nonzero;fill:rgb(14.117648%,77.254903%,72.549021%);fill-opacity:1;" d="M 36.625 27.625 C 36.722656 27.691406 36.722656 27.691406 36.820312 27.761719 C 38.359375 28.886719 39.398438 30.425781 39.9375 32.25 C 39.953125 32.296875 39.964844 32.34375 39.980469 32.390625 C 40.570312 34.441406 40.136719 36.75 39.144531 38.601562 C 38.867188 39.09375 38.550781 39.558594 38.234375 40.023438 C 38.140625 40.164062 38.050781 40.300781 37.957031 40.4375 C 37.355469 41.355469 36.734375 42.261719 36.097656 43.15625 C 35.839844 43.519531 35.59375 43.882812 35.34375 44.25 C 35.039062 44.699219 34.730469 45.148438 34.414062 45.589844 C 34.234375 45.84375 34.054688 46.101562 33.878906 46.359375 C 32.707031 48.078125 32.707031 48.078125 32.25 48.25 C 31.96875 48.292969 31.746094 48.277344 31.492188 48.15625 C 31.035156 47.757812 30.710938 47.269531 30.382812 46.765625 C 30 46.179688 30 46.179688 29.585938 45.613281 C 29.304688 45.25 29.054688 44.871094 28.800781 44.488281 C 28.523438 44.066406 28.242188 43.644531 27.957031 43.230469 C 27.238281 42.175781 26.53125 41.117188 25.828125 40.054688 C 25.757812 39.949219 25.6875 39.84375 25.617188 39.738281 C 24.300781 37.738281 23.527344 35.441406 23.953125 33.023438 C 24.449219 30.765625 25.675781 28.804688 27.628906 27.515625 C 30.320312 25.800781 33.988281 25.742188 36.625 27.625 Z M 36.625 27.625 "/>
<path style=" stroke:none;fill-rule:nonzero;fill:rgb(98.823529%,99.215686%,99.215686%);fill-opacity:1;" d="M 34.0625 31.765625 C 34.707031 32.300781 35.203125 33.03125 35.3125 33.875 C 35.402344 34.953125 35.175781 35.84375 34.507812 36.71875 C 34.007812 37.273438 33.191406 37.699219 32.4375 37.75 C 32.328125 37.757812 32.328125 37.757812 32.21875 37.765625 C 31.664062 37.785156 31.203125 37.703125 30.6875 37.5 C 30.617188 37.472656 30.617188 37.472656 30.546875 37.449219 C 29.835938 37.136719 29.253906 36.449219 28.949219 35.75 C 28.582031 34.792969 28.59375 33.882812 29 32.9375 C 29.429688 32.101562 30.070312 31.574219 30.941406 31.238281 C 31.992188 30.9375 33.1875 31.101562 34.0625 31.765625 Z M 34.0625 31.765625 "/>
<path style=" stroke:none;fill-rule:nonzero;fill:rgb(17.647059%,17.254902%,17.647059%);fill-opacity:1;" d="M 18.625 43.375 C 18.832031 43.417969 19.003906 43.496094 19.191406 43.59375 C 19.5625 43.785156 19.839844 43.820312 20.253906 43.808594 C 20.371094 43.804688 20.492188 43.804688 20.613281 43.800781 C 20.707031 43.800781 20.707031 43.800781 20.804688 43.796875 C 21.214844 43.792969 21.625 43.789062 22.03125 43.785156 C 22.390625 43.785156 22.75 43.78125 23.109375 43.773438 C 23.457031 43.761719 23.804688 43.761719 24.152344 43.761719 C 24.285156 43.761719 24.414062 43.757812 24.546875 43.753906 C 25.550781 43.71875 25.550781 43.71875 25.886719 43.980469 C 26.230469 44.332031 26.472656 44.75 26.6875 45.1875 C 26.402344 45.089844 26.277344 44.867188 26.113281 44.628906 C 26.070312 44.570312 26.070312 44.570312 26.027344 44.507812 C 25.910156 44.339844 25.816406 44.195312 25.75 44 C 25.675781 44 25.605469 44 25.527344 44 C 24.839844 44.003906 24.148438 44.007812 23.460938 44.007812 C 23.105469 44.011719 22.75 44.011719 22.394531 44.015625 C 22.054688 44.015625 21.710938 44.015625 21.367188 44.019531 C 21.238281 44.019531 21.109375 44.019531 20.976562 44.019531 C 20.796875 44.019531 20.613281 44.019531 20.429688 44.019531 C 20.375 44.023438 20.320312 44.023438 20.265625 44.023438 C 19.765625 44.019531 19.28125 43.914062 18.867188 43.617188 C 18.820312 43.585938 18.773438 43.550781 18.726562 43.519531 C 18.691406 43.492188 18.660156 43.464844 18.625 43.4375 C 18.625 43.417969 18.625 43.394531 18.625 43.375 Z M 18.625 43.375 "/>
<path style=" stroke:none;fill-rule:nonzero;fill:rgb(6.27451%,74.509805%,56.470591%);fill-opacity:1;" d="M 25.0625 30.1875 C 25.082031 30.230469 25.105469 30.269531 25.125 30.3125 C 25.105469 30.359375 25.085938 30.40625 25.066406 30.457031 C 24.996094 30.632812 24.988281 30.75 25 30.9375 C 24.960938 30.949219 24.925781 30.960938 24.886719 30.972656 C 24.691406 31.101562 24.640625 31.273438 24.5625 31.484375 C 24.546875 31.527344 24.53125 31.566406 24.515625 31.609375 C 24.359375 32.023438 24.238281 32.445312 24.125 32.875 C 24.105469 32.875 24.082031 32.875 24.0625 32.875 C 24.113281 31.933594 24.542969 30.964844 25.0625 30.1875 Z M 25.0625 30.1875 "/>
<path style=" stroke:none;fill-rule:nonzero;fill:rgb(2.352941%,2.352941%,2.352941%);fill-opacity:1;" d="M 46.125 42.0625 C 46.207031 42.308594 46.148438 42.375 46.035156 42.605469 C 45.730469 43.1875 45.292969 43.605469 44.6875 43.875 C 44.644531 43.855469 44.605469 43.832031 44.5625 43.8125 C 44.597656 43.789062 44.632812 43.765625 44.671875 43.742188 C 45.378906 43.28125 45.761719 42.828125 46.125 42.0625 Z M 46.125 42.0625 "/>
<path style=" stroke:none;fill-rule:nonzero;fill:rgb(5.490196%,5.882353%,5.882353%);fill-opacity:1;" d="M 14.375 44.8125 C 14.601562 45.027344 14.789062 45.25 14.976562 45.503906 C 15.023438 45.566406 15.070312 45.632812 15.121094 45.699219 C 15.183594 45.785156 15.183594 45.785156 15.25 45.875 C 15.3125 45.957031 15.375 46.042969 15.4375 46.125 C 15.375 46.125 15.3125 46.125 15.25 46.125 C 15.128906 45.988281 15.015625 45.851562 14.90625 45.707031 C 14.875 45.667969 14.84375 45.628906 14.8125 45.589844 C 14.375 45.015625 14.375 45.015625 14.375 44.8125 Z M 14.375 44.8125 "/>
<path style=" stroke:none;fill-rule:nonzero;fill:rgb(4.313726%,4.313726%,4.313726%);fill-opacity:1;" d="M 25.8125 44 C 26.042969 44.210938 26.214844 44.449219 26.390625 44.703125 C 26.433594 44.765625 26.433594 44.765625 26.476562 44.828125 C 26.546875 44.925781 26.617188 45.023438 26.6875 45.125 C 26.625 45.125 26.5625 45.125 26.5 45.125 C 26.410156 45.03125 26.410156 45.03125 26.316406 44.90625 C 26.269531 44.839844 26.269531 44.839844 26.21875 44.769531 C 26.183594 44.722656 26.148438 44.675781 26.113281 44.625 C 26.078125 44.578125 26.042969 44.53125 26.007812 44.480469 C 25.921875 44.363281 25.835938 44.242188 25.75 44.125 C 25.769531 44.082031 25.792969 44.042969 25.8125 44 Z M 25.8125 44 "/>
<path style=" stroke:none;fill-rule:nonzero;fill:rgb(4.705882%,4.705882%,4.705882%);fill-opacity:1;" d="M 16.4375 18 C 16.457031 18.042969 16.480469 18.082031 16.5 18.125 C 16.429688 18.175781 16.359375 18.230469 16.289062 18.28125 C 16.230469 18.324219 16.230469 18.324219 16.171875 18.367188 C 16.0625 18.4375 16.0625 18.4375 15.9375 18.4375 C 15.9375 18.480469 15.9375 18.519531 15.9375 18.5625 C 15.664062 18.75 15.664062 18.75 15.5 18.75 C 15.5 18.707031 15.5 18.667969 15.5 18.625 C 15.632812 18.523438 15.761719 18.429688 15.898438 18.339844 C 15.953125 18.300781 15.953125 18.300781 16.011719 18.261719 C 16.289062 18.074219 16.289062 18.074219 16.4375 18 Z M 16.4375 18 "/>
<path style=" stroke:none;fill-rule:nonzero;fill:rgb(6.27451%,6.27451%,6.27451%);fill-opacity:1;" d="M 48.3125 18.5625 C 48.726562 18.757812 49.015625 19.046875 49.25 19.4375 C 49.1875 19.46875 49.1875 19.46875 49.125 19.5 C 48.851562 19.1875 48.582031 18.878906 48.3125 18.5625 Z M 48.3125 18.5625 "/>
<path style=" stroke:none;fill-rule:nonzero;fill:rgb(5.882353%,5.882353%,5.882353%);fill-opacity:1;" d="M 13.8125 21.125 C 13.882812 21.339844 13.863281 21.394531 13.792969 21.601562 C 13.777344 21.652344 13.761719 21.699219 13.742188 21.753906 C 13.6875 21.875 13.6875 21.875 13.5625 21.9375 C 13.589844 21.613281 13.617188 21.394531 13.8125 21.125 Z M 13.8125 21.125 "/>
<path style=" stroke:none;fill-rule:nonzero;fill:rgb(12.941177%,12.941177%,12.941177%);fill-opacity:1;" d="M 21.875 14.375 C 22.164062 14.375 22.453125 14.375 22.75 14.375 C 22.6875 14.46875 22.6875 14.46875 22.625 14.5625 C 22.488281 14.582031 22.488281 14.582031 22.335938 14.574219 C 22.285156 14.574219 22.234375 14.570312 22.179688 14.570312 C 22.140625 14.566406 22.101562 14.566406 22.0625 14.5625 C 22.0625 14.519531 22.0625 14.480469 22.0625 14.4375 C 22 14.417969 21.9375 14.394531 21.875 14.375 Z M 21.875 14.375 "/>
<path style=" stroke:none;fill-rule:nonzero;fill:rgb(3.529412%,3.529412%,3.529412%);fill-opacity:1;" d="M 21.4375 14.5625 C 21.5 14.582031 21.5625 14.605469 21.625 14.625 C 21.417969 14.769531 21.210938 14.914062 21 15.0625 C 20.957031 15.042969 20.917969 15.019531 20.875 15 C 20.945312 14.9375 21.015625 14.878906 21.085938 14.816406 C 21.144531 14.765625 21.144531 14.765625 21.203125 14.714844 C 21.3125 14.625 21.3125 14.625 21.4375 14.5625 Z M 21.4375 14.5625 "/>
<path style=" stroke:none;fill-rule:nonzero;fill:rgb(3.137255%,3.137255%,3.137255%);fill-opacity:1;" d="M 27 45.6875 C 27.226562 45.902344 27.398438 46.113281 27.5625 46.375 C 27.351562 46.285156 27.210938 46.175781 27.0625 46 C 27.015625 45.828125 27.015625 45.828125 27 45.6875 Z M 27 45.6875 "/>
<path style=" stroke:none;fill-rule:nonzero;fill:rgb(4.705882%,4.705882%,4.705882%);fill-opacity:1;" d="M 37.1875 45.375 C 37.230469 45.394531 37.269531 45.417969 37.3125 45.4375 C 37.167969 45.644531 37.023438 45.851562 36.875 46.0625 C 36.832031 46.042969 36.792969 46.019531 36.75 46 C 36.964844 45.691406 36.964844 45.691406 37.1875 45.375 Z M 37.1875 45.375 "/>
<path style=" stroke:none;fill-rule:nonzero;fill:rgb(12.54902%,12.54902%,12.54902%);fill-opacity:1;" d="M 49.875 44.25 C 49.917969 44.269531 49.957031 44.292969 50 44.3125 C 49.921875 44.496094 49.921875 44.496094 49.8125 44.6875 C 49.675781 44.742188 49.675781 44.742188 49.5625 44.75 C 49.636719 44.539062 49.703125 44.398438 49.875 44.25 Z M 49.875 44.25 "/>
<path style=" stroke:none;fill-rule:nonzero;fill:rgb(3.529412%,3.529412%,3.529412%);fill-opacity:1;" d="M 49.375 45.125 C 49.394531 45.167969 49.417969 45.207031 49.4375 45.25 C 49.378906 45.332031 49.320312 45.417969 49.261719 45.5 C 49.230469 45.546875 49.195312 45.59375 49.164062 45.640625 C 49.128906 45.675781 49.097656 45.710938 49.0625 45.75 C 49 45.75 48.9375 45.75 48.875 45.75 C 49.039062 45.542969 49.203125 45.335938 49.375 45.125 Z M 49.375 45.125 "/>
<path style=" stroke:none;fill-rule:nonzero;fill:rgb(5.490196%,5.882353%,5.882353%);fill-opacity:1;" d="M 38.1875 43.9375 C 38.375 43.957031 38.558594 43.980469 38.75 44 C 38.75 44.019531 38.75 44.042969 38.75 44.0625 C 38.648438 44.074219 38.648438 44.074219 38.542969 44.089844 C 38.316406 44.117188 38.316406 44.117188 38.125 44.1875 C 38.105469 44.25 38.082031 44.3125 38.0625 44.375 C 38.019531 44.355469 37.980469 44.332031 37.9375 44.3125 C 38.019531 44.1875 38.101562 44.066406 38.1875 43.9375 Z M 38.1875 43.9375 "/>
<path style=" stroke:none;fill-rule:nonzero;fill:rgb(3.137255%,3.137255%,3.137255%);fill-opacity:1;" d="M 37.875 44.4375 C 37.917969 44.457031 37.957031 44.480469 38 44.5 C 37.8125 44.746094 37.8125 44.746094 37.625 45 C 37.582031 44.980469 37.542969 44.957031 37.5 44.9375 C 37.625 44.773438 37.746094 44.609375 37.875 44.4375 Z M 37.875 44.4375 "/>
<path style=" stroke:none;fill-rule:nonzero;fill:rgb(11.372549%,11.372549%,11.372549%);fill-opacity:1;" d="M 18.4375 17.375 C 18.339844 17.472656 18.339844 17.472656 18.1875 17.5625 C 17.953125 17.542969 17.953125 17.542969 17.75 17.5 C 17.96875 17.378906 18.199219 17.257812 18.4375 17.375 Z M 18.4375 17.375 "/>
<path style=" stroke:none;fill-rule:nonzero;fill:rgb(6.666667%,6.666667%,6.666667%);fill-opacity:1;" d="M 26.625 45.1875 C 26.667969 45.1875 26.707031 45.1875 26.75 45.1875 C 26.832031 45.296875 26.832031 45.296875 26.914062 45.4375 C 26.941406 45.484375 26.96875 45.53125 27 45.578125 C 27.019531 45.613281 27.039062 45.648438 27.0625 45.6875 C 27 45.71875 27 45.71875 26.9375 45.75 C 26.886719 45.679688 26.832031 45.609375 26.78125 45.539062 C 26.753906 45.5 26.722656 45.460938 26.695312 45.421875 C 26.625 45.3125 26.625 45.3125 26.625 45.1875 Z M 26.625 45.1875 "/>
</g>
</svg>
